<svg xmlns="http://www.w3.org/2000/svg" viewBox="0 0 160 200">
  <path d="M11.48,196.98 L9.5,194.79 L9.27,168.28 L9.04,141.77 L5.77,140.13 C1.35,137.92 1.27,136.07 5.38,129.82 L8.87,124.5 L7.75,75 C6.46,17.62 6.52,12.38 8.53,9.32 C10.89,5.71 13.7,4.63 17.12,6.05 C19.58,7.07 20.34,7 21.85,5.63 C23.97,3.72 27.87,3.53 31.45,5.16 C33.54,6.11 34.32,6.02 35.82,4.66 C37.92,2.76 42.07,2.47 43.72,4.12 C44.54,4.94 45.44,4.8 47.14,3.62 C50.26,1.43 52.93,1.58 55.61,4.11 L57.86,6.21 L60.15,4.61 C62.81,2.74 66.12,2.52 67.7,4.1 C68.5,4.9 69.8,4.84 72.47,3.87 C75.61,2.74 76.53,2.77 78.82,4.06 C80.83,5.2 82.19,5.34 84.26,4.59 C86.22,3.89 88.06,3.98 90.58,4.89 C93.65,6 94.39,5.96 95.9,4.59 C98.36,2.36 101.96,2.61 104.71,5.2 L107.05,7.4 L109.93,5.7 C113.57,3.55 116.83,3.54 119.17,5.65 L121,7.31 L125.03,5.49 L129.06,3.67 L131.81,5.7 C134.14,7.42 135.72,7.68 142.28,7.37 C152.93,6.86 153.42,7.43 154.82,22.12 C157.45,49.77 160.15,149.63 159.2,184.5 C158.82,198.52 158.17,199.29 147.64,198.4 C137.98,197.57 32.66,197.66 21.98,198.5 L13.47,199.18 L11.48,196.98 Z M26.25,191.28 C24.46,191.05 21.54,191.05 19.75,191.28 C17.96,191.5 19.42,191.68 23,191.68 C26.58,191.68 28.04,191.5 26.25,191.28 Z M91.16,190 C98.7,190 102,189.65 102,188.84 C102,187.62 75.54,188.29 56,190.01 C48.23,190.69 49.59,190.77 63.41,190.42 C72.71,190.19 85.2,190 91.16,190 Z M152,185.6 L152,180.19 L147.25,180.59 C144.64,180.8 140.78,181.26 138.69,181.61 C135.57,182.12 134.44,181.82 132.44,179.94 L130,177.65 L130,161.14 L130,144.63 L132.17,142.31 C134.62,139.71 138.55,139.3 140.92,141.39 C142.2,142.52 143.41,142.57 147.25,141.67 L152,140.55 L152,133.35 C152,123.83 151.6,123 147.05,123 C142.91,123 140.45,120.99 139.73,117 L139.27,114.5 L139.14,117.19 C138.76,124.73 125,124.57 125,117.03 C125,115.68 124.52,115.25 123.49,115.64 C122.66,115.96 121.32,115.68 120.53,115.02 C119.34,114.04 118.96,114.32 118.41,116.66 C117.61,120.02 115.23,123 113.35,123 C111.9,123 111.4,135.74 112.6,141.75 L113.2,144.75 L116.03,143.34 C119.66,141.52 123.63,142.51 125.77,145.77 C127.06,147.75 127.5,151.53 127.82,163.39 L128.22,178.5 L126.15,180.37 C124.83,181.57 122.42,182.29 119.54,182.37 L115.01,182.5 L115.01,186.22 L115,189.94 L127.25,190.25 C133.99,190.43 142.31,190.66 145.75,190.78 L152,191 L152,185.6 Z M72,179.65 C78.88,178.81 88.1,177.8 92.5,177.39 C99.56,176.74 100.09,176.56 97,175.86 C95.08,175.42 92.85,175.3 92.07,175.57 C91.28,175.85 84.53,176.52 77.07,177.07 C69.6,177.61 60.35,178.47 56.5,178.98 C52.65,179.48 41.99,179.92 32.81,179.95 C21.52,179.98 15.89,180.37 15.42,181.13 C14.44,182.72 55.67,181.64 72,179.65 Z M47,169.96 C69.23,168.32 66.69,167 41.28,167 C18.74,167 16,167.27 16,169.46 C16,171.13 28.38,171.33 47,169.96 Z M96.76,161.31 C95.81,161.06 94.01,161.05 92.76,161.29 C91.52,161.53 92.3,161.74 94.5,161.75 C96.7,161.76 97.72,161.56 96.76,161.31 Z M34.92,159.38 C35.92,158.46 17.35,159.14 16,160.06 C14.95,160.79 17.5,160.9 24.5,160.43 C30,160.06 34.69,159.59 34.92,159.38 Z M43,150.55 C43.83,150.38 38.09,150.18 30.25,150.12 C22.41,150.05 16,150.38 16,150.85 C16,151.6 39.29,151.35 43,150.55 Z M94.25,150.29 C93.01,150.06 90.99,150.06 89.75,150.29 C88.51,150.53 89.53,150.73 92,150.73 C94.47,150.73 95.49,150.53 94.25,150.29 Z M97.25,140.34 C96.56,140.06 95.44,140.06 94.75,140.34 C94.06,140.62 94.62,140.84 96,140.84 C97.38,140.84 97.94,140.62 97.25,140.34 Z M67.38,126.61 C70.02,125.51 70.82,124.5 71.27,121.71 C71.9,117.85 69.82,108.41 68.39,108.65 C67.9,108.73 62.21,109.12 55.75,109.52 L44,110.24 L42.39,106.39 C39.86,100.34 41.34,97.5 47.03,97.49 C49.49,97.48 52.05,97.13 52.71,96.7 C53.43,96.24 54.79,96.79 56.04,98.04 C59.39,101.39 61.4,99.91 59.35,95.61 C57.91,92.59 57.47,92.31 55.79,93.33 C52.28,95.47 48.19,88.21 51.2,85.2 C53.93,82.47 59.76,85.85 58.41,89.37 L57.77,91.04 L60.86,89.27 C63.37,87.83 64.32,87.73 65.89,88.71 C67.45,89.67 68.07,89.63 69.04,88.46 C72.78,83.95 78.87,89.5 75.62,94.46 C74.7,95.86 73.54,97 73.04,97 C71.45,97 73.23,104.35 75.74,108.16 L78.15,111.82 L76.53,114.94 C73.96,119.91 74.98,120.35 87.74,119.72 C94.03,119.41 99.41,118.93 99.68,118.65 C100.6,117.73 100.32,67.42 99.34,57.84 L98.76,52.17 L90.63,50.97 C85.51,50.21 78.05,49.99 70.5,50.39 C63.9,50.74 49.89,51.29 39.37,51.62 L20.24,52.21 L19.84,55.85 C19.62,57.86 19.68,73.45 19.97,90.5 L20.5,121.5 L32.33,121.5 L44.17,121.5 L46.06,123.83 C49.02,127.48 61.43,129.1 67.38,126.61 Z M41.21,118.81 C39.43,117.03 39.73,114.55 41.98,112.52 C44.33,110.39 45.38,111.89 44.82,116.59 C44.46,119.71 43,120.6 41.21,118.81 Z M127.27,88.52 C130.12,86.53 134.88,86.58 137.15,88.64 L138.96,90.27 L140.85,87.94 C142.26,86.2 143.79,85.59 146.87,85.55 L150.99,85.5 L151,79.66 L151,73.82 L147.25,74.46 C142.56,75.25 140.11,73.61 139.02,68.95 L138.2,65.5 L138.1,68.69 C137.93,74.14 130.28,77.12 125.47,73.6 C123.8,72.38 123.25,72.44 121.14,74.1 C119.72,75.22 117.15,76 114.87,76 L111,76 L111,83 C111,89.14 111.23,90 112.85,90 C115.31,90 117.62,92.77 118.47,96.75 C118.95,99.01 119.73,100 121.02,100 C122.04,100 123.25,100.56 123.69,101.25 C124.16,101.98 124.62,99.91 124.8,96.27 C125.04,91.21 125.5,89.76 127.27,88.52 Z M67.98,95.19 C67.97,93.73 67.84,93.71 67,95 C65.73,96.96 65.73,98.28 67,97.5 C67.55,97.16 67.99,96.12 67.98,95.19 Z M37.56,94.78 C35.31,91.57 35.63,89.44 38.73,87 L41.46,84.85 L43.23,87.04 C45.23,89.51 45.48,92.23 43.96,95.07 C42.58,97.65 39.47,97.51 37.56,94.78 Z M59,44.31 L64.5,43.69 L61,42.9 C59.08,42.47 52.1,42.53 45.5,43.04 C38.9,43.54 29.09,43.96 23.69,43.98 C17.13,43.99 14.1,44.35 14.53,45.04 C15.19,46.11 47.69,45.57 59,44.31 Z M125.44,43.47 C128.02,41.52 135.39,41.56 137.02,43.53 C138.15,44.89 138.49,44.87 140.17,43.35 C141.2,42.41 143.61,41.61 145.52,41.57 C147.44,41.53 149,40.98 149,40.34 C149,39.03 135.1,37.7 120,37.58 L110.5,37.5 L110.5,39.48 C110.5,41.18 111.08,41.42 114.54,41.17 C117.6,40.95 119.03,41.38 120.44,42.94 C122.64,45.36 122.9,45.39 125.44,43.47 Z M84.25,38.34 C83.56,38.06 82.44,38.06 81.75,38.34 C81.06,38.62 81.62,38.84 83,38.84 C84.38,38.84 84.94,38.62 84.25,38.34 Z M78.5,33.96 C85.65,33.99 93.08,33.61 95,33.11 C97.66,32.42 95.16,32.14 84.5,31.95 C47.44,31.27 15,32.34 15,34.24 C15,34.93 23.25,35.04 40.25,34.58 C54.14,34.21 71.35,33.93 78.5,33.96 Z" fill="#16130F" fill-rule="evenodd"/>
</svg>
